<svg xmlns="http://www.w3.org/2000/svg">
  <symbol viewBox="0 0 24 14" id="icon-vkontakte">
    <path fill-rule="evenodd" clip-rule="evenodd" d="M23.45 0.948C23.616 0.402 23.45 0 22.655 0H20.03C19.362 0 19.054 0.347 18.887 0.73C18.887 0.73 17.552 3.926 15.661 6.002C15.049 6.604 14.771 6.795 14.437 6.795C14.27 6.795 14.019 6.604 14.019 6.057V0.948C14.019 0.292 13.835 0 13.279 0H9.151C8.734 0 8.483 0.304 8.483 0.593C8.483 1.214 9.429 1.358 9.526 3.106V6.904C9.526 7.737 9.373 7.888 9.039 7.888C8.149 7.888 5.984 4.677 4.699 1.003C4.45 0.288 4.198 0 3.527 0H0.9C0.15 0 0 0.347 0 0.73C0 1.412 0.89 4.8 4.145 9.281C6.315 12.341 9.37 14 12.153 14C13.822 14 14.028 13.632 14.028 12.997V10.684C14.028 9.947 14.186 9.8 14.715 9.8C15.105 9.8 15.772 9.992 17.33 11.467C19.11 13.216 19.403 14 20.405 14H23.03C23.78 14 24.156 13.632 23.94 12.904C23.702 12.18 22.852 11.129 21.725 9.882C21.113 9.172 20.195 8.407 19.916 8.024C19.527 7.533 19.638 7.314 19.916 6.877C19.916 6.877 23.116 2.451 23.449 0.948H23.45Z"/>
  </symbol>
  <symbol viewBox="0 0 24 24" id="icon-telegram">
    <path d="M22.4393 4.62225L19.2705 19.566C19.0313 20.6205 18.408 20.883 17.5223 20.3865L12.6938 16.8285L10.3643 19.0695C10.1063 19.3275 9.89102 19.5428 9.39377 19.5428L9.74102 14.6258L18.6893 6.54C19.0785 6.1935 18.6045 6.00075 18.0848 6.348L7.02227 13.314L2.25977 11.823C1.22402 11.4998 1.20527 10.7873 2.47577 10.29L21.1035 3.11325C21.966 2.79 22.7205 3.30525 22.4393 4.623V4.62225Z"/>
  </symbol>
  <symbol viewBox="0 0 24 24" id="icon-youtube">
    <path d="M19.1813 5H4.81331C3.30618 5 2 6.3 2 7.8V16.1C2 17.7 3.30618 19 4.81331 19H19.1813C20.7889 19 21.9946 17.7 21.9946 16.2V7.8C22.095 6.3 20.7889 5 19.1813 5ZM9.03326 15.4V8.6L15.8656 12L9.03326 15.4Z"/>
  </symbol>
  <symbol viewBox="0 0 28 33" id="logo-htmlacademy">
    <path d="M14.1506 0.25H14.0502L0.5 1.58944V25.221L14.0502 32.875L27.5 25.221V1.58944L14.1506 0.25ZM25.5929 11.8266L14.0502 5.32075V5.22507H13.9498L13.8494 5.1294V5.22507L2.40706 11.8266V3.21591L13.9498 2.06782L25.5929 3.21591V11.8266ZM13.9498 6.75587L25.4926 13.1661L20.9758 15.6536L13.8494 11.6353V12.9747L19.7714 16.3233L18.868 16.8017L13.8494 13.9315V15.2709L17.6636 17.4714L16.8606 17.9498L13.8494 16.2276V17.5671L15.7565 18.6195L13.9498 19.6719L2.50743 13.2617L13.9498 6.75587ZM2.40706 14.6968L13.8494 21.2027V22.1595L5.92007 17.6628V19.0022L13.9498 23.5946V24.647L5.92007 20.1503V21.4897L13.9498 26.0821L22.0799 21.3941V16.419L25.4926 14.5055V24.0729L13.9498 30.6745L2.40706 24.1686V14.6968Z"/>
  </symbol>
</svg>
